FFmpeg version SVN-r25716, Copyright (c) 2000-2010 the FFmpeg developers  built on Nov 10 2010 12:23:18 with gcc 4.1.2 20080704 (Red Hat 4.1.2-48)  configuration: --enable-libmp3lame --enable-shared --disable-mmx --arch=x86_64  libavutil     50.33. 0 / 50.33. 0  libavcore      0.12. 1 /  0.12. 1  libavcodec    52.94. 4 / 52.94. 4  libavformat   52.84. 0 / 52.84. 0  libavdevice   52. 2. 2 / 52. 2. 2  libavfilter    1.59. 0 /  1.59. 0  libswscale     0.12. 0 /  0.12. 0Seems stream 0 codec frame rate differs from container frame rate: 1200.00 (1200/1) -> 15.00 (15/1)Input #0, mov,mp4,m4a,3gp,3g2,mj2, from '/RAID10/data/converted_video_files/15790.mov':  Metadata:    major_brand     : qt      minor_version   : 537199360    compatible_brands: qt    Duration: 00:00:07.13, start: 0.000000, bitrate: 4168 kb/s    Stream #0.0(eng): Video: h264, yuv420p, 420x420, 4161 kb/s, 15 fps, 15 tbr, 600 tbn, 1200 tbc[buffer @ 0x1a4f1b0] w:420 h:420 pixfmt:yuv420pOutput #0, flv, to '/RAID10/data/converted_video_files/15790.flv':  Metadata:    encoder         : Lavf52.84.0    Stream #0.0(eng): Video: flv, yuv420p, 420x420, q=2-31, 600 kb/s, 1k tbn, 24 tbcStream mapping:  Stream #0.0 -> #0.0Press [q] to stop encodingframe=   42 fps=  0 q=12.8 size=     360kB time=2.75 bitrate=1073.8kbits/s    frame=   81 fps= 78 q=11.3 size=     490kB time=5.38 bitrate= 746.2kbits/s    frame=   95 fps= 55 q=11.4 size=     541kB time=6.29 bitrate= 704.1kbits/s    frame=  107 fps= 55 q=11.0 Lsize=     586kB time=7.12 bitrate= 674.0kbits/s    video:584kB audio:0kB global headers:0kB muxing overhead 0.321271%